<svg xmlns="http://www.w3.org/2000/svg" viewBox="0 0 48 48"><defs><style>.cls-1{fill:#dad7e5;}.cls-2{fill:#edebf2;}.cls-3{fill:#fc6;}.cls-4{fill:#ffde76;}.cls-5{fill:#db5669;}.cls-6{fill:#f26674;}.cls-7{fill:#c4455e;}.cls-8{fill:#f26da6;}.cls-9{fill:#de4a8c;}</style></defs><title>Wedding Cake</title><g id="Wedding_Cake" data-name="Wedding Cake"><rect class="cls-1" x="1" y="43" width="46" height="4"/><path class="cls-2" d="M47,43v2H6a2,2,0,0,1-2-2Z"/><rect class="cls-3" x="5" y="27" width="38" height="16"/><path class="cls-4" d="M43,27V41H22A14,14,0,0,1,8,27Z"/><rect class="cls-3" x="9" y="11" width="30" height="16"/><path class="cls-4" d="M30.31,11a12,12,0,0,1-4.66,14A14,14,0,0,1,12,11Z"/><path class="cls-4" d="M39,11V25H31.64A12,12,0,0,0,37,15V11Z"/><path class="cls-5" d="M23.89,6.36,20,10.24C15.8,6,15,5.64,15,4a3,3,0,0,1,5-2.23A3.11,3.11,0,0,1,22,1a3,3,0,0,1,2.13.88A3,3,0,0,0,23.89,6.36Z"/><path class="cls-6" d="M22.88,6.35l.51.51-2,2c-3.49-3.49-3.56-3.54-3.62-3.64A3,3,0,0,1,18,1a3.12,3.12,0,0,1,2,.77,3,3,0,0,1,3.69-.24A3,3,0,0,0,22.88,6.35Z"/><path class="cls-7" d="M33,4.23c0,1.66-.83,2.07-5,6.24-4.2-4.2-5-4.6-5-6.24A3,3,0,0,1,28,2a3.12,3.12,0,0,1,2-.77A3,3,0,0,1,33,4.23Z"/><path class="cls-5" d="M33,4.23c0,1.56-.76,2-3.5,4.74C26,5.42,25,4.88,25,3.23a3,3,0,0,1,.76-2A3.06,3.06,0,0,1,28,2,3,3,0,0,1,33,4.23Z"/><path class="cls-8" d="M39,11v4A12,12,0,0,1,27,27c-9.85,0-5.1.17-3-.38A12,12,0,0,0,32.31,11Z"/><path class="cls-9" d="M27.63,25A11.9,11.9,0,0,1,24,26.62c-2.17.57-6.76.38,3,.38a12,12,0,0,0,11.18-7.67A12,12,0,0,1,27.63,25Z"/><path class="cls-9" d="M23,43H17A12,12,0,0,1,5,31V27h6.69A12,12,0,0,0,23,43Z"/><path class="cls-8" d="M16.17,40.86A12,12,0,0,1,6,29V27h5.69A12,12,0,0,0,16.17,40.86Z"/><path class="cls-2" d="M19,32a1,1,0,0,0-2,0A1,1,0,0,0,19,32Z"/><path class="cls-2" d="M25,38a1,1,0,0,0-2,0A1,1,0,0,0,25,38Z"/><path class="cls-2" d="M17,16a1,1,0,0,0-2,0A1,1,0,0,0,17,16Z"/><path class="cls-2" d="M23,22a1,1,0,0,0-2,0A1,1,0,0,0,23,22Z"/><path class="cls-2" d="M31,32a1,1,0,0,0-2,0A1,1,0,0,0,31,32Z"/><path class="cls-2" d="M37,38a1,1,0,0,0-2,0A1,1,0,0,0,37,38Z"/></g></svg>