<svg xmlns="http://www.w3.org/2000/svg" viewBox="0 0 64 64"><defs><style>.cls-1{isolation:isolate;}.cls-2{fill:#f7130d;}.cls-3{fill:#ebebff;}.cls-4{fill:#f27121;}.cls-5,.cls-6{fill:none;stroke:#000;stroke-miterlimit:10;}.cls-5{stroke-width:2px;}.cls-7,.cls-9{mix-blend-mode:multiply;}.cls-8,.cls-9{opacity:0.25;}</style></defs><title>Icon Color</title><g class="cls-1"><g id="Layer_1" data-name="Layer 1"><g id="Vector"><path class="cls-2" d="M61.2,55.12v3.16a2.53,2.53,0,0,1-2.52,2.53H5.32A2.53,2.53,0,0,1,2.8,58.28V55.12A2.52,2.52,0,0,1,5.32,52.6H58.68A2.52,2.52,0,0,1,61.2,55.12Z"/><path class="cls-2" d="M56.72,32.58v3.86c-4.7.81-5,7.76-10.27,7.76-5.59,0-5.59-7.83-11.18-7.83s-5.6,7.83-11.18,7.83-5.59-7.83-11.18-7.83c-2.82,0-4.22,2-5.62,4V32.58a4.83,4.83,0,0,1,5-4.61H51.71A4.82,4.82,0,0,1,56.72,32.58Z"/><path class="cls-3" d="M56.72,36.44V51.77a4.67,4.67,0,0,1-.08.83H7.37a4.67,4.67,0,0,1-.08-.83V40.32c1.4-2,2.8-4,5.62-4,5.59,0,5.59,7.83,11.18,7.83s5.58-7.83,11.18-7.83,5.59,7.83,11.18,7.83C51.72,44.2,52,37.25,56.72,36.44Z"/><path class="cls-3" d="M28.88,19.37v7.72a1.88,1.88,0,0,1-.22.88H20.31a1.77,1.77,0,0,1-.22-.88V19.37a2,2,0,0,1,2-2h4.85A2,2,0,0,1,28.88,19.37Z"/><path class="cls-3" d="M43.92,19.37v7.72a1.87,1.87,0,0,1-.21.88H35.35a1.87,1.87,0,0,1-.21-.88V19.37a2,2,0,0,1,2-2H42A2,2,0,0,1,43.92,19.37Z"/><path class="cls-2" d="M28,11.82a4.26,4.26,0,0,1-3.37,2.72C22.9,14.62,21.49,13,21,11.82c-1.09-2.45.23-6,3.47-8.63C27.67,5.84,29.08,9.34,28,11.82Z"/><path class="cls-4" d="M26.23,12.54a2.09,2.09,0,0,1-1.65,1.34,2.16,2.16,0,0,1-1.83-1.34c-.53-1.2.12-2.94,1.71-4.24C26.05,9.6,26.75,11.32,26.23,12.54Z"/><path class="cls-2" d="M43.09,11.82a4.24,4.24,0,0,1-3.36,2.72C38,14.62,36.54,13,36,11.82c-1.1-2.45.23-6,3.46-8.63C42.72,5.84,44.13,9.34,43.09,11.82Z"/><path class="cls-4" d="M41.29,12.54a2.1,2.1,0,0,1-1.65,1.34,2.15,2.15,0,0,1-1.83-1.34c-.54-1.2.11-2.94,1.7-4.24C41.11,9.6,41.8,11.32,41.29,12.54Z"/></g><g id="Line"><path class="cls-5" d="M17,60.81H5.32A2.53,2.53,0,0,1,2.8,58.28V55.12A2.52,2.52,0,0,1,5.32,52.6H58.68a2.52,2.52,0,0,1,2.52,2.52v3.16a2.53,2.53,0,0,1-2.52,2.53H22"/><path class="cls-5" d="M56.72,32.58v3.86c-4.7.81-5,7.76-10.27,7.76-5.59,0-5.59-7.83-11.18-7.83s-5.6,7.83-11.18,7.83-5.59-7.83-11.18-7.83c-2.82,0-4.22,2-5.62,4V32.58a4.83,4.83,0,0,1,5-4.61H51.71A4.82,4.82,0,0,1,56.72,32.58Z"/><path class="cls-5" d="M7.29,44V40.32c1.4-2,2.8-4,5.62-4,5.59,0,5.59,7.83,11.18,7.83s5.58-7.83,11.18-7.83,5.59,7.83,11.18,7.83c5.27,0,5.57-7,10.27-7.76V51.77a4.67,4.67,0,0,1-.08.83H7.37a4.67,4.67,0,0,1-.08-.83V47"/><path class="cls-5" d="M28.88,19.37v7.72a1.88,1.88,0,0,1-.22.88H20.31a1.77,1.77,0,0,1-.22-.88V19.37a2,2,0,0,1,2-2h4.85A2,2,0,0,1,28.88,19.37Z"/><path class="cls-5" d="M43.92,19.37v7.72a1.87,1.87,0,0,1-.21.88H35.35a1.87,1.87,0,0,1-.21-.88V19.37a2,2,0,0,1,2-2H42A2,2,0,0,1,43.92,19.37Z"/><path class="cls-5" d="M28,11.82a4.26,4.26,0,0,1-3.37,2.72C22.9,14.62,21.49,13,21,11.82c-1.09-2.45.23-6,3.47-8.63C27.67,5.84,29.08,9.34,28,11.82Z"/><path class="cls-6" d="M26.23,12.54a2.09,2.09,0,0,1-1.65,1.34,2.16,2.16,0,0,1-1.83-1.34c-.53-1.2.12-2.94,1.71-4.24C26.05,9.6,26.75,11.32,26.23,12.54Z"/><path class="cls-5" d="M43.09,11.82a4.24,4.24,0,0,1-3.36,2.72C38,14.62,36.54,13,36,11.82c-1.1-2.45.23-6,3.46-8.63C42.72,5.84,44.13,9.34,43.09,11.82Z"/><path class="cls-6" d="M41.29,12.54a2.1,2.1,0,0,1-1.65,1.34,2.15,2.15,0,0,1-1.83-1.34c-.54-1.2.11-2.94,1.7-4.24C41.11,9.6,41.8,11.32,41.29,12.54Z"/></g><g id="Shadow" class="cls-7"><path class="cls-8" d="M21,11.82c-1.09-2.45.23-6,3.47-8.63,3.25,2.65,4.66,6.15,3.62,8.63a4.26,4.26,0,0,1-3.37,2.72C22.9,14.62,21.49,13,21,11.82Z"/><path class="cls-8" d="M36,11.82c-1.1-2.45.23-6,3.46-8.63,3.25,2.65,4.66,6.15,3.62,8.63a4.24,4.24,0,0,1-3.36,2.72C38,14.62,36.54,13,36,11.82Z"/><path class="cls-9" d="M58.68,52.6h-2a4.67,4.67,0,0,0,.08-.83V32.58a4.82,4.82,0,0,0-5-4.61h-8a1.87,1.87,0,0,0,.21-.88V19.37a2,2,0,0,0-2-2H38.13a7.45,7.45,0,0,0-1.67,1.08A7.18,7.18,0,0,0,35.14,20v7.07a1.87,1.87,0,0,0,.21.88H33.12C33,32,33.41,36.09,33,40.13c-.44,4.36-2.12,8.91-5.76,11.35-4.11,2.76-9.51,2.18-14.45,1.81-3.26-.24-6.82-.2-9.8.93a2.45,2.45,0,0,0-.18.9v3.16a2.53,2.53,0,0,0,2.52,2.53H58.68a2.53,2.53,0,0,0,2.52-2.53V55.12A2.52,2.52,0,0,0,58.68,52.6Z"/></g></g></g></svg>