<svg xmlns="http://www.w3.org/2000/svg" viewBox="0 0 48 48"><title>24-cake</title><g id="_24-cake" data-name="24-cake"><path d="M7,1C4.79,1,3,4.7,3,7A2.331,2.331,0,0,0,5,9H9a2.331,2.331,0,0,0,2-2C11,4.7,9.21,1,7,1Z" style="fill:#ff468c"/><path d="M18,1c-2.21,0-4,3.7-4,6a2.331,2.331,0,0,0,2,2h4a2.331,2.331,0,0,0,2-2C22,4.7,20.21,1,18,1Z" style="fill:#ff468c"/><path d="M30,1c-2.21,0-4,3.7-4,6a2.331,2.331,0,0,0,2,2h4a2.331,2.331,0,0,0,2-2C34,4.7,32.21,1,30,1Z" style="fill:#ff468c"/><path d="M41,1c-2.21,0-4,3.7-4,6a2.331,2.331,0,0,0,2,2h4a2.331,2.331,0,0,0,2-2C45,4.7,43.21,1,41,1Z" style="fill:#ff468c"/><path d="M10.63,7.986A2.184,2.184,0,0,1,9,9H5A2.331,2.331,0,0,1,3,7a7.529,7.529,0,0,1,.6-2.713C4.757,6.385,7.45,7.877,10.63,7.986Z" style="fill:#d72878"/><path d="M6,3A3.382,3.382,0,0,0,3.437,4.726C4.1,2.837,5.443,1,7,1c2.21,0,4,3.7,4,6A2.336,2.336,0,0,1,9.983,8.637C9.814,6.331,8.1,3,6,3Z" style="fill:#ff85b3"/><ellipse cx="8.25" cy="7.174" rx="0.413" ry="0.574" style="fill:#fdffbf"/><ellipse cx="6.25" cy="7.174" rx="0.413" ry="0.574" style="fill:#ffde91"/><ellipse cx="10.25" cy="7.174" rx="0.574" ry="0.413" transform="translate(-2.072 9.345) rotate(-44.98)" style="fill:#fdffbf"/><ellipse cx="4.25" cy="7.174" rx="0.413" ry="0.574" transform="translate(-3.829 5.109) rotate(-45.02)" style="fill:#ffde91"/><ellipse cx="7.25" cy="5.174" rx="0.413" ry="0.574" style="fill:#fdffbf"/><ellipse cx="6.25" cy="4.174" rx="0.413" ry="0.574" style="fill:#fdffbf"/><ellipse cx="9.25" cy="5.174" rx="0.574" ry="0.413" transform="translate(-0.951 8.053) rotate(-44.98)" style="fill:#fdffbf"/><ellipse cx="4.25" cy="5.174" rx="0.413" ry="0.574" transform="translate(-2.414 4.523) rotate(-45.02)" style="fill:#fdffbf"/><ellipse cx="8.25" cy="3.174" rx="0.413" ry="0.574" style="fill:#fdffbf"/><ellipse cx="6.25" cy="2.174" rx="0.413" ry="0.574" style="fill:#fdffbf"/><path d="M21.63,7.986A2.184,2.184,0,0,1,20,9H16a2.331,2.331,0,0,1-2-2,7.529,7.529,0,0,1,.6-2.713C15.757,6.385,18.45,7.877,21.63,7.986Z" style="fill:#d72878"/><path d="M17,3a3.382,3.382,0,0,0-2.563,1.726C15.1,2.837,16.443,1,18,1c2.21,0,4,3.7,4,6a2.336,2.336,0,0,1-1.017,1.637C20.814,6.331,19.1,3,17,3Z" style="fill:#ff85b3"/><ellipse cx="19.25" cy="7.174" rx="0.413" ry="0.574" style="fill:#fdffbf"/><ellipse cx="17.25" cy="7.174" rx="0.413" ry="0.574" style="fill:#ffde91"/><ellipse cx="21.25" cy="7.174" rx="0.574" ry="0.413" transform="translate(1.148 17.12) rotate(-44.98)" style="fill:#fdffbf"/><ellipse cx="15.25" cy="7.174" rx="0.413" ry="0.574" transform="translate(-0.604 12.89) rotate(-45.02)" style="fill:#ffde91"/><ellipse cx="18.25" cy="5.174" rx="0.413" ry="0.574" style="fill:#fdffbf"/><ellipse cx="17.25" cy="4.174" rx="0.413" ry="0.574" style="fill:#fdffbf"/><ellipse cx="20.25" cy="5.174" rx="0.574" ry="0.413" transform="translate(2.269 15.828) rotate(-44.98)" style="fill:#fdffbf"/><ellipse cx="15.25" cy="5.174" rx="0.413" ry="0.574" transform="translate(0.81 12.304) rotate(-45.02)" style="fill:#fdffbf"/><ellipse cx="19.25" cy="3.174" rx="0.413" ry="0.574" style="fill:#fdffbf"/><ellipse cx="17.25" cy="2.174" rx="0.413" ry="0.574" style="fill:#fdffbf"/><path d="M33.63,7.986A2.184,2.184,0,0,1,32,9H28a2.331,2.331,0,0,1-2-2,7.529,7.529,0,0,1,.6-2.713C27.757,6.385,30.45,7.877,33.63,7.986Z" style="fill:#d72878"/><path d="M29,3a3.382,3.382,0,0,0-2.563,1.726C27.1,2.837,28.443,1,30,1c2.21,0,4,3.7,4,6a2.336,2.336,0,0,1-1.017,1.637C32.814,6.331,31.1,3,29,3Z" style="fill:#ff85b3"/><ellipse cx="31.25" cy="7.174" rx="0.413" ry="0.574" style="fill:#fdffbf"/><ellipse cx="29.25" cy="7.174" rx="0.413" ry="0.574" style="fill:#ffde91"/><ellipse cx="33.25" cy="7.174" rx="0.574" ry="0.413" transform="translate(4.659 25.603) rotate(-44.98)" style="fill:#fdffbf"/><ellipse cx="27.25" cy="7.174" rx="0.413" ry="0.574" transform="translate(2.913 21.378) rotate(-45.02)" style="fill:#ffde91"/><ellipse cx="30.25" cy="5.174" rx="0.413" ry="0.574" style="fill:#fdffbf"/><ellipse cx="29.25" cy="4.174" rx="0.413" ry="0.574" style="fill:#fdffbf"/><ellipse cx="32.25" cy="5.174" rx="0.574" ry="0.413" transform="translate(5.78 24.311) rotate(-44.98)" style="fill:#fdffbf"/><ellipse cx="27.25" cy="5.174" rx="0.413" ry="0.574" transform="translate(4.328 20.792) rotate(-45.02)" style="fill:#fdffbf"/><ellipse cx="31.25" cy="3.174" rx="0.413" ry="0.574" style="fill:#fdffbf"/><ellipse cx="29.25" cy="2.174" rx="0.413" ry="0.574" style="fill:#fdffbf"/><path d="M44.63,7.986A2.184,2.184,0,0,1,43,9H39a2.331,2.331,0,0,1-2-2,7.529,7.529,0,0,1,.6-2.713C38.757,6.385,41.45,7.877,44.63,7.986Z" style="fill:#d72878"/><path d="M40,3a3.382,3.382,0,0,0-2.563,1.726C38.1,2.837,39.443,1,41,1c2.21,0,4,3.7,4,6a2.336,2.336,0,0,1-1.017,1.637C43.814,6.331,42.1,3,40,3Z" style="fill:#ff85b3"/><ellipse cx="42.25" cy="7.174" rx="0.413" ry="0.574" style="fill:#fdffbf"/><ellipse cx="40.25" cy="7.174" rx="0.413" ry="0.574" style="fill:#ffde91"/><ellipse cx="44.25" cy="7.174" rx="0.574" ry="0.413" transform="translate(7.879 33.378) rotate(-44.98)" style="fill:#fdffbf"/><ellipse cx="38.25" cy="7.174" rx="0.413" ry="0.574" transform="translate(6.138 29.159) rotate(-45.02)" style="fill:#ffde91"/><ellipse cx="41.25" cy="5.174" rx="0.413" ry="0.574" style="fill:#fdffbf"/><ellipse cx="40.25" cy="4.174" rx="0.413" ry="0.574" style="fill:#fdffbf"/><ellipse cx="43.25" cy="5.174" rx="0.574" ry="0.413" transform="translate(9 32.086) rotate(-44.98)" style="fill:#fdffbf"/><ellipse cx="38.25" cy="5.174" rx="0.413" ry="0.574" transform="translate(7.552 28.573) rotate(-45.02)" style="fill:#fdffbf"/><ellipse cx="42.25" cy="3.174" rx="0.413" ry="0.574" style="fill:#fdffbf"/><ellipse cx="40.25" cy="2.174" rx="0.413" ry="0.574" style="fill:#fdffbf"/><rect x="3" y="26" width="42" height="7" style="fill:#f2d1a5"/><path d="M45,16v6H3V15a2.6,2.6,0,0,0,2,1c2,0,2-2,4-2s2,2,4,2,2-2,4-2,2,2,4,2,2-2,4-2,2,2,4,2,2-2,4-2,2,2,4,2,2-2,4-2S43,16,45,16Z" style="fill:#f2d1a5"/><rect x="3" y="22" width="42" height="4" style="fill:#ff8fb8"/><path d="M47,13v2a2.6,2.6,0,0,1-2,1c-2,0-2-2-4-2s-2,2-4,2-2-2-4-2-2,2-4,2-2-2-4-2-2,2-4,2-2-2-4-2-2,2-4,2-2-2-4-2-2,2-4,2a2.6,2.6,0,0,1-2-1,2.6,2.6,0,0,0-2-1V13A4,4,0,0,1,5,9H43A4,4,0,0,1,47,13Z" style="fill:#ff8fb8"/><path d="M41,14c-2,0-2,2-4,2s-2-2-4-2-2,2-4,2-2-2-4-2-2,2-4,2-2-2-4-2-2,2-4,2-2-2-4-2-2,2-4,2a2.6,2.6,0,0,1-2-1v2a2.6,2.6,0,0,0,2,1c2,0,2-2,4-2s2,2,4,2,2-2,4-2,2,2,4,2,2-2,4-2,2,2,4,2,2-2,4-2,2,2,4,2,2-2,4-2,2,2,4,2V16C43,16,43,14,41,14Z" style="fill:#f2bb88"/><path d="M41,11c-2,0-2,2-4,2s-2-2-4-2-2,2-4,2-2-2-4-2-2,2-4,2-2-2-4-2-2,2-4,2-2-2-4-2-2,2-4,2a2.6,2.6,0,0,1-2-1,2.911,2.911,0,0,0-1.482-.933A3.958,3.958,0,0,0,1,13v1a2.6,2.6,0,0,1,2,1,2.6,2.6,0,0,0,2,1c2,0,2-2,4-2s2,2,4,2,2-2,4-2,2,2,4,2,2-2,4-2,2,2,4,2,2-2,4-2,2,2,4,2,2-2,4-2,2,2,4,2a2.6,2.6,0,0,0,2-1V13a4.01,4.01,0,0,0-.109-.9A2.474,2.474,0,0,1,45,13C43,13,43,11,41,11Z" style="fill:#ff73a5"/><path d="M41,13c-2,0-2,2-4,2s-2-2-4-2-2,2-4,2-2-2-4-2-2,2-4,2-2-2-4-2-2,2-4,2-2-2-4-2-2,2-4,2a2.6,2.6,0,0,1-2-1,2.6,2.6,0,0,0-2-1v1a2.6,2.6,0,0,1,2,1,2.6,2.6,0,0,0,2,1c2,0,2-2,4-2s2,2,4,2,2-2,4-2,2,2,4,2,2-2,4-2,2,2,4,2,2-2,4-2,2,2,4,2,2-2,4-2,2,2,4,2a2.6,2.6,0,0,0,2-1V14a2.6,2.6,0,0,1-2,1C43,15,43,13,41,13Z" style="fill:#ff468c"/><rect x="3" y="20" width="42" height="1" style="fill:#fcf2b6"/><rect x="3" y="21" width="42" height="1" style="fill:#ff73a5"/><rect x="3" y="26" width="42" height="1" style="fill:#ff73a5"/><rect x="3" y="27" width="42" height="1" style="fill:#fcf2b6"/><rect x="3" y="23" width="42" height="2" style="fill:#ff468c"/><ellipse cx="39.254" cy="23.5" rx="0.413" ry="0.574" transform="translate(-5.116 34.655) rotate(-45.02)" style="fill:#d261e8"/><ellipse cx="35.254" cy="24.5" rx="0.413" ry="0.574" transform="translate(-6.996 32.119) rotate(-45.02)" style="fill:#fff3c1"/><ellipse cx="26.254" cy="23.5" rx="0.413" ry="0.574" transform="translate(-8.927 25.46) rotate(-45.02)" style="fill:#fff3c1"/><ellipse cx="43.254" cy="24.5" rx="0.413" ry="0.574" transform="translate(-4.651 37.778) rotate(-45.02)" style="fill:#fff3c1"/><ellipse cx="15.254" cy="24.5" rx="0.413" ry="0.574" transform="translate(-12.859 17.972) rotate(-45.02)" style="fill:#fff3c1"/><ellipse cx="11.254" cy="23.5" rx="0.413" ry="0.574" transform="translate(-13.324 14.849) rotate(-45.02)" style="fill:#fff3c1"/><ellipse cx="31.254" cy="23.5" rx="0.413" ry="0.574" style="fill:#d261e8"/><ellipse cx="13.254" cy="24.5" rx="0.413" ry="0.574" style="fill:#d72878"/><ellipse cx="9.254" cy="24.5" rx="0.413" ry="0.574" style="fill:#d72878"/><ellipse cx="17.254" cy="24.5" rx="0.413" ry="0.574" style="fill:#8f4cd6"/><ellipse cx="4.254" cy="23.5" rx="0.413" ry="0.574" style="fill:#8f4cd6"/><ellipse cx="24.254" cy="24.5" rx="0.574" ry="0.413" transform="translate(-10.22 24.338) rotate(-45.02)" style="fill:#7f2d87"/><ellipse cx="7.254" cy="23.5" rx="0.574" ry="0.413" transform="translate(-14.496 12.02) rotate(-45.02)" style="fill:#7f2d87"/><ellipse cx="28.254" cy="24.5" rx="0.574" ry="0.413" transform="translate(-9.048 27.167) rotate(-45.02)" style="fill:#d261e8"/><ellipse cx="32.254" cy="24.5" rx="0.413" ry="0.574" style="fill:#a7e340"/><ellipse cx="20.254" cy="24.5" rx="0.413" ry="0.574" style="fill:#a7e340"/><ellipse cx="41.254" cy="23.5" rx="0.413" ry="0.574" style="fill:#fff04a"/><ellipse cx="31.746" cy="10.5" rx="0.574" ry="0.413" transform="translate(1.868 25.513) rotate(-44.98)" style="fill:#fff3c1"/><ellipse cx="21.746" cy="10.5" rx="0.574" ry="0.413" transform="translate(-1.058 18.444) rotate(-44.98)" style="fill:#fff3c1"/><ellipse cx="35.746" cy="10.5" rx="0.574" ry="0.413" transform="translate(3.039 28.34) rotate(-44.98)" style="fill:#fff3c1"/><ellipse cx="10.746" cy="10.5" rx="0.413" ry="0.574" style="fill:#d261e8"/><ellipse cx="43.746" cy="10.5" rx="0.413" ry="0.574" transform="translate(5.38 33.995) rotate(-44.98)" style="fill:#d261e8"/><ellipse cx="19.746" cy="11.5" rx="0.413" ry="0.574" transform="translate(-2.35 17.323) rotate(-44.98)" style="fill:#d261e8"/><path d="M37.727,13.711l.215-.323a.253.253,0,0,0,.012-.256A.248.248,0,0,0,37.735,13h-.342l-.18-.361a.257.257,0,0,0-.443,0L36.59,13h-.342a.249.249,0,0,0-.206.388l.214.323-.226.416a.249.249,0,0,0,.3.356l.666-.223.665.223a.236.236,0,0,0,.078.013.245.245,0,0,0,.19-.09.248.248,0,0,0,.028-.279Z" style="fill:#d261e8"/><path d="M5.727,10.711l.215-.323a.253.253,0,0,0,.012-.256A.248.248,0,0,0,5.735,10H5.393l-.18-.361a.257.257,0,0,0-.443,0L4.59,10H4.248a.249.249,0,0,0-.206.388l.214.323-.226.416a.249.249,0,0,0,.3.356l.666-.223.665.223a.236.236,0,0,0,.078.013.245.245,0,0,0,.19-.09.248.248,0,0,0,.028-.279Z" style="fill:#8f4cd6"/><path d="M29.727,10.711l.215-.323a.253.253,0,0,0,.012-.256A.248.248,0,0,0,29.735,10h-.342l-.18-.361a.257.257,0,0,0-.443,0L28.59,10h-.342a.249.249,0,0,0-.206.388l.214.323-.226.416a.249.249,0,0,0,.3.356l.666-.223.665.223a.236.236,0,0,0,.078.013.245.245,0,0,0,.19-.09.248.248,0,0,0,.028-.279Z" style="fill:#ff5f96"/><path d="M13.727,11.711l.215-.323a.253.253,0,0,0,.012-.256A.248.248,0,0,0,13.735,11h-.342l-.18-.361a.257.257,0,0,0-.443,0L12.59,11h-.342a.249.249,0,0,0-.206.388l.214.323-.226.416a.249.249,0,0,0,.3.356l.666-.223.665.223a.236.236,0,0,0,.078.013.245.245,0,0,0,.19-.09.248.248,0,0,0,.028-.279Z" style="fill:#d72878"/><rect x="3" y="31" width="42" height="2" style="fill:#f2bb88"/><path d="M45,33a2.006,2.006,0,0,1,2,2,2.015,2.015,0,0,1-2,2H3a2.006,2.006,0,0,1-2-2,1.955,1.955,0,0,1,.59-1.41A1.955,1.955,0,0,1,3,33Z" style="fill:#c78ff5"/><path d="M46.41,34.41A1.955,1.955,0,0,1,45,35H3a2,2,0,0,1-1.721-1A1.963,1.963,0,0,0,1,35a2.006,2.006,0,0,0,2,2H45a1.984,1.984,0,0,0,1.721-3A1.938,1.938,0,0,1,46.41,34.41Z" style="fill:#a260e5"/><path d="M34,45.29v.29A1.425,1.425,0,0,1,32.58,47H15.42A1.425,1.425,0,0,1,14,45.58v-.29a1.454,1.454,0,0,1,1.21-1.41C17.95,43.33,20,40.87,20,37h8c0,3.87,2.05,6.33,4.79,6.88A1.454,1.454,0,0,1,34,45.29Z" style="fill:#c78ff5"/><path d="M32.58,46H15.42a1.423,1.423,0,0,1-1.36-1.036,1.343,1.343,0,0,0-.06.326v.29A1.425,1.425,0,0,0,15.42,47H32.58A1.425,1.425,0,0,0,34,45.58v-.29a1.343,1.343,0,0,0-.06-.326A1.423,1.423,0,0,1,32.58,46Z" style="fill:#a260e5"/><path d="M28,37H20a9.354,9.354,0,0,1-.227,2h8.454A9.354,9.354,0,0,1,28,37Z" style="fill:#7a3eb5"/><path d="M21.544,39c1.51,2.733,6.03,4.759,11.5,4.974a1.541,1.541,0,0,0-.251-.094A5.924,5.924,0,0,1,28.227,39H21.544Z" style="fill:#d2a0f5"/><path d="M11.14,10.333a.764.764,0,0,1-.024.41,14.526,14.526,0,0,0,.283,1.636A2.264,2.264,0,0,0,13,13c2,0,2-2,4-2s2,2,4,2,2-2,4-2,2,2,4,2,2-2,4-2c1.855,0,2.009,1.7,3.615,1.95l.155-.311a.257.257,0,0,1,.443,0l.156.313C38.99,12.712,39.139,11,41,11c2,0,2,2,4,2a2.474,2.474,0,0,0,1.891-.9A3.994,3.994,0,0,0,43,9H11c0,.372.015.742.043,1.11A.621.621,0,0,1,11.14,10.333ZM43.272,10.2c.089-.22.373-.262.634-.094a.634.634,0,0,1,.313.7c-.088.22-.372.262-.634.095A.638.638,0,0,1,43.272,10.2Zm-7.924.143a.636.636,0,0,1,.7-.313c.22.088.262.372.094.634a.636.636,0,0,1-.7.313C35.223,10.885,35.181,10.6,35.348,10.34Zm-4,0a.636.636,0,0,1,.7-.313c.22.088.262.372.094.634a.636.636,0,0,1-.7.313C31.223,10.885,31.181,10.6,31.348,10.34Zm-3.319-.208A.249.249,0,0,1,28.248,10h.342l.18-.361a.257.257,0,0,1,.443,0l.18.361h.342a.248.248,0,0,1,.219.132.253.253,0,0,1-.012.256l-.215.323.226.416a.248.248,0,0,1-.028.279.245.245,0,0,1-.19.09.236.236,0,0,1-.078-.013l-.665-.223-.666.223a.249.249,0,0,1-.3-.356l.226-.416-.214-.323A.25.25,0,0,1,28.029,10.132Zm-6.681.208a.636.636,0,0,1,.7-.313c.22.088.262.372.094.634a.636.636,0,0,1-.7.313C21.223,10.885,21.181,10.6,21.348,10.34Zm-2.076.857c.089-.22.373-.262.634-.094a.634.634,0,0,1,.313.7c-.088.22-.372.262-.634.095A.638.638,0,0,1,19.272,11.2Zm-7.243-.065A.249.249,0,0,1,12.248,11h.342l.18-.361a.257.257,0,0,1,.443,0l.18.361h.342a.248.248,0,0,1,.219.132.253.253,0,0,1-.012.256l-.215.323.226.416a.248.248,0,0,1-.028.279.245.245,0,0,1-.19.09.236.236,0,0,1-.078-.013l-.665-.223-.666.223a.249.249,0,0,1-.3-.356l.226-.416-.214-.323A.25.25,0,0,1,12.029,11.132Z" style="fill:#ffb9d5"/><path d="M46.933,12.34c-.014-.079-.024-.158-.042-.235h0A2.474,2.474,0,0,1,45,13c-2,0-2-2-4-2-1.861,0-2.01,1.712-3.631,1.952l.024.048h.342a.248.248,0,0,1,.219.132.253.253,0,0,1-.012.256l-.215.323.226.416a.248.248,0,0,1-.028.279.245.245,0,0,1-.19.09.236.236,0,0,1-.078-.013l-.665-.223-.666.223a.249.249,0,0,1-.3-.356l.226-.416-.214-.323A.249.249,0,0,1,36.248,13h.342l.025-.05C35.009,12.7,34.855,11,33,11c-2,0-2,2-4,2s-2-2-4-2-2,2-4,2-2-2-4-2-2,2-4,2a2.264,2.264,0,0,1-1.6-.621,15.438,15.438,0,0,0,.831,2.489A2.3,2.3,0,0,0,13,15c2,0,2-2,4-2s2,2,4,2,2-2,4-2,2,2,4,2,2-2,4-2,2,2,4,2,2-2,4-2,2,2,4,2a2.6,2.6,0,0,0,2-1V13A3.886,3.886,0,0,0,46.933,12.34Z" style="fill:#ffa1c8"/><path d="M41,13c-2,0-2,2-4,2s-2-2-4-2-2,2-4,2-2-2-4-2-2,2-4,2-2-2-4-2-2,2-4,2a2.3,2.3,0,0,1-.77-.132q.237.557.517,1.1A2.18,2.18,0,0,0,13,16c2,0,2-2,4-2s2,2,4,2,2-2,4-2,2,2,4,2,2-2,4-2,2,2,4,2,2-2,4-2,2,2,4,2a2.6,2.6,0,0,0,2-1V14a2.6,2.6,0,0,1-2,1C43,15,43,13,41,13Z" style="fill:#ff73a5"/><path d="M45,31V28H27.854A48.732,48.732,0,0,0,45,31Z" style="fill:#f6dfc1"/><path d="M37,18c-2,0-2-2-4-2s-2,2-4,2-2-2-4-2-2,2-4,2-2-2-4-2c-1.659,0-1.956,1.363-3.146,1.832A20.714,20.714,0,0,0,15.553,20H45V18c-2,0-2-2-4-2S39,18,37,18Z" style="fill:#f6dfc1"/><path d="M32.134,25.049A.342.342,0,0,1,32.068,25h-10.4c.564.345,1.141.681,1.741,1H45V25H32.454A.309.309,0,0,1,32.134,25.049Z" style="fill:#ffcfe2"/><path d="M18.761,23H31.054a.311.311,0,0,1,.32-.049A.342.342,0,0,1,31.44,23h9.614a.311.311,0,0,1,.32-.049A.342.342,0,0,1,41.44,23H45V22H17.566C17.952,22.34,18.347,22.675,18.761,23Z" style="fill:#ffcfe2"/><path d="M37,16c-2,0-2-2-4-2s-2,2-4,2-2-2-4-2-2,2-4,2-2-2-4-2-2,2-4,2a2.18,2.18,0,0,1-.253-.033,18.243,18.243,0,0,0,1.107,1.865C15.044,17.363,15.341,16,17,16c2,0,2,2,4,2s2-2,4-2,2,2,4,2,2-2,4-2,2,2,4,2,2-2,4-2,2,2,4,2V16c-2,0-2-2-4-2S39,16,37,16Z" style="fill:#f2d1a5"/><path d="M16.5,21H45V20H15.553Q16.008,20.508,16.5,21Z" style="fill:#fffce5"/><path d="M17.566,22H45V21H16.5Q17.014,21.51,17.566,22Z" style="fill:#ffa1c8"/><path d="M25.45,27H45V26H23.407C24.066,26.351,24.751,26.682,25.45,27Z" style="fill:#ffa1c8"/><path d="M27.854,28H45V27H25.45Q26.617,27.531,27.854,28Z" style="fill:#fffce5"/><path d="M41.649,23.668c-.067.3-.3.474-.515.381a.634.634,0,0,1-.274-.716A.568.568,0,0,1,41.054,23H31.44a.664.664,0,0,1,.209.668c-.067.3-.3.474-.515.381a.634.634,0,0,1-.274-.716A.568.568,0,0,1,31.054,23H18.761c.429.336.877.66,1.335.978a.3.3,0,0,1,.278-.027.529.529,0,0,1,.271.4q.5.331,1.021.649h10.4a.663.663,0,0,1-.208-.667c.066-.3.3-.475.514-.382a.637.637,0,0,1,.275.717.571.571,0,0,1-.2.332H45V23H41.44A.664.664,0,0,1,41.649,23.668ZM24.415,24.9c-.262.167-.546.125-.634-.095a.634.634,0,0,1,.313-.7c.261-.168.545-.126.634.094A.638.638,0,0,1,24.415,24.9Zm2.142-.924a.636.636,0,0,1-.7-.313c-.168-.262-.126-.546.094-.634a.636.636,0,0,1,.7.313C26.819,23.6,26.777,23.885,26.557,23.974Zm1.858.924c-.262.167-.546.125-.634-.095a.634.634,0,0,1,.313-.7c.261-.168.545-.126.634.094A.638.638,0,0,1,28.415,24.9Zm7.142.076a.636.636,0,0,1-.7-.313c-.168-.262-.126-.546.094-.634a.636.636,0,0,1,.7.313C35.819,24.6,35.777,24.885,35.557,24.974Zm4-1a.636.636,0,0,1-.7-.313c-.168-.262-.126-.546.094-.634a.636.636,0,0,1,.7.313C39.819,23.6,39.777,23.885,39.557,23.974Zm3.394.053a.636.636,0,0,1,.7.313c.167.261.125.545-.095.634a.636.636,0,0,1-.7-.313C42.689,24.4,42.731,24.115,42.951,24.027Z" style="fill:#ff8fb8"/><ellipse cx="42" cy="11" rx="0.825" ry="1.148" transform="translate(4.531 32.933) rotate(-45.02)" style="fill:#f6fafd"/><ellipse cx="42" cy="3" rx="0.825" ry="1.148" transform="translate(10.19 30.588) rotate(-45.02)" style="fill:#f6fafd"/><ellipse cx="31" cy="3" rx="0.825" ry="1.148" transform="translate(6.965 22.807) rotate(-45.02)" style="fill:#f6fafd"/><ellipse cx="19" cy="3" rx="0.825" ry="1.148" transform="translate(3.448 14.319) rotate(-45.02)" style="fill:#f6fafd"/><ellipse cx="8" cy="3" rx="0.825" ry="1.148" transform="translate(0.223 6.538) rotate(-45.02)" style="fill:#f6fafd"/><ellipse cx="42" cy="18" rx="0.825" ry="1.148" transform="translate(-0.421 34.985) rotate(-45.02)" style="fill:#f6fafd"/><ellipse cx="43" cy="35" rx="0.825" ry="1.148" transform="translate(-12.152 40.676) rotate(-45.02)" style="fill:#f6fafd"/><ellipse cx="40" cy="29" rx="0.825" ry="1.148" transform="translate(-8.788 36.795) rotate(-45.02)" style="fill:#f6fafd"/><ellipse cx="44.746" cy="12.5" rx="0.413" ry="0.574" transform="translate(4.275 35.315) rotate(-45.02)" style="fill:#f6fafd"/><ellipse cx="40.746" cy="19.5" rx="0.413" ry="0.574" transform="translate(-1.849 34.538) rotate(-45.02)" style="fill:#f6fafd"/><ellipse cx="16.746" cy="18.5" rx="0.413" ry="0.574" transform="translate(-8.177 17.268) rotate(-45.02)" style="fill:#f6fafd"/><ellipse cx="44.746" cy="34.5" rx="0.413" ry="0.574" transform="translate(-11.287 41.764) rotate(-45.02)" style="fill:#f6fafd"/><path d="M47.707,15.707A1,1,0,0,0,48,15V13a4.984,4.984,0,0,0-2.614-4.366A2.881,2.881,0,0,0,46,7c0-2.818-2.1-7-5-7s-5,4.182-5,7a2.485,2.485,0,0,0,.236,1H34.764A2.485,2.485,0,0,0,35,7c0-2.818-2.1-7-5-7s-5,4.182-5,7a2.485,2.485,0,0,0,.236,1H22.764A2.485,2.485,0,0,0,23,7c0-2.818-2.1-7-5-7s-5,4.182-5,7a2.485,2.485,0,0,0,.236,1H11.764A2.485,2.485,0,0,0,12,7c0-2.818-2.1-7-5-7S2,4.182,2,7a2.881,2.881,0,0,0,.614,1.634A4.984,4.984,0,0,0,0,13v1a1,1,0,0,0,1,1,1.315,1.315,0,0,1,1,.425V32.184A2.993,2.993,0,0,0,3,38H18.938c-.293,2.614-1.737,4.457-3.926,4.9A2.443,2.443,0,0,0,13,45.285v.294A2.424,2.424,0,0,0,15.421,48H32.579A2.424,2.424,0,0,0,35,45.579v-.294A2.443,2.443,0,0,0,32.989,42.9c-2.19-.443-3.634-2.287-3.927-4.9H45a2.993,2.993,0,0,0,1-5.816V16.854A4.047,4.047,0,0,0,47.707,15.707ZM38,7c0-2.02,1.58-5,3-5s3,2.98,3,5c-.008.3-.6,1-1,1H41V6H39V8C38.6,8,38.008,7.3,38,7ZM27,7c0-2.02,1.58-5,3-5a2.191,2.191,0,0,1,1.532,1H30V5h2V3.69A7.086,7.086,0,0,1,33,7c-.008.3-.6,1-1,1H28C27.6,8,27.008,7.3,27,7ZM15,7c0-2.02,1.58-5,3-5s3,2.98,3,5c-.008.3-.6,1-1,1H18V6H16V8C15.6,8,15.008,7.3,15,7ZM4,7C4,4.98,5.58,2,7,2A2.191,2.191,0,0,1,8.532,3H7V5H9V3.69A7.086,7.086,0,0,1,10,7c-.008.3-.6,1-1,1H5C4.6,8,4.008,7.3,4,7ZM2,13a3,3,0,0,1,3-3H43a3,3,0,0,1,3,3v1.577A1.308,1.308,0,0,1,45,15c-.563,0-.8-.217-1.293-.707a3.48,3.48,0,0,0-5.414,0c-.49.49-.731.707-1.293.707s-.8-.217-1.293-.707a3.48,3.48,0,0,0-5.414,0c-.49.49-.731.707-1.293.707s-.8-.217-1.293-.707a3.48,3.48,0,0,0-5.414,0c-.49.49-.731.707-1.293.707s-.8-.217-1.293-.707a3.48,3.48,0,0,0-5.414,0c-.49.49-.731.707-1.293.707s-.8-.217-1.293-.707a3.48,3.48,0,0,0-5.414,0C5.8,14.783,5.562,15,5,15s-.8-.217-1.293-.707A4.038,4.038,0,0,0,2,13.142ZM32.592,44.861a.463.463,0,0,1,.408.424v.294a.42.42,0,0,1-.421.421H15.421A.42.42,0,0,1,15,45.579v-.294a.463.463,0,0,1,.408-.424c3.11-.629,5.192-3.281,5.524-6.861h6.136C27.4,41.579,29.481,44.23,32.592,44.861ZM45,36H3a1,1,0,0,1,0-2H39V32H4V27H8V25H4V23H34V21H4V16.854A3.359,3.359,0,0,0,5,17a3.564,3.564,0,0,0,2.707-1.293C8.2,15.217,8.437,15,9,15s.8.217,1.293.707a3.48,3.48,0,0,0,5.414,0c.49-.49.73-.707,1.293-.707s.8.217,1.293.707a3.48,3.48,0,0,0,5.414,0c.49-.49.73-.707,1.293-.707s.8.217,1.293.707a3.48,3.48,0,0,0,5.414,0c.49-.49.73-.707,1.293-.707s.8.217,1.293.707a3.48,3.48,0,0,0,5.414,0c.49-.49.73-.707,1.293-.707s.8.217,1.293.707A4.047,4.047,0,0,0,44,16.854V21H40v2h4v2H10v2H44v5H41v2h4a1,1,0,0,1,0,2Z"/><rect x="36" y="21" width="2" height="2"/><rect x="41" y="4" width="2" height="2"/><rect x="28" y="5" width="2" height="2"/><rect x="18" y="4" width="2" height="2"/><rect x="5" y="5" width="2" height="2"/></g></svg>