<svg xmlns="http://www.w3.org/2000/svg" viewBox="0 0 512 512"><defs><style>.cls-1{fill:#f0c788;}.cls-2{fill:#75c07d;}.cls-3{fill:#64a268;}.cls-4{fill:#d93a46;}.cls-5{fill:#a1323f;}.cls-6{fill:#fff;}.cls-7{fill:#313d74;}.cls-8{fill:#2c375f;}.cls-9{fill:#40518d;}.cls-10{fill:#de9dbd;}.cls-11{fill:#c4719a;}.cls-12{fill:#dc7da7;}.cls-13{fill:#c6729c;}.cls-14{fill:#ab658a;}.cls-15{fill:#c78fab;}.cls-16{fill:#de90b7;}.cls-17{fill:#e8c2d6;}.cls-18{fill:#72392f;}.cls-19{fill:#5c2f2a;}.cls-20{fill:#eaac2e;}.cls-21{fill:#cc9228;}.cls-22{fill:#7bb9ec;}.cls-23{fill:#74add4;}.cls-24{fill:#70a7cd;}.cls-25{fill:#679ab4;}.cls-26{fill:#9b112e;}</style></defs><title>Food</title><g id="BULINE"><circle class="cls-1" cx="256" cy="256" r="256"/></g><g id="Icons"><path class="cls-2" d="M250.71,17c-7.62-.82-14.79,7.45-16.33,18.63-7.83-7.69-18.19-9.88-23.73-4.8s-4.22,15.62,2.8,24.08a32.73,32.73,0,0,0-3.36-.49c-11.68-1-21.71,4.54-22.39,12.4s8.24,15,19.92,16.06S229.33,78.34,230,70.48a10.51,10.51,0,0,0-1.33-6c4.14.78,8,0,10.7-2.43a10.17,10.17,0,0,0,2.72-4.27,9.9,9.9,0,0,0,4.08,1.38c7.84.85,15.22-7.92,16.47-19.58S258.56,17.83,250.71,17Z"/><path class="cls-3" d="M204,68.55c-.49,5.76,4.15,11.17,11.27,14a30,30,0,0,1-7.63.29c-11.69-1-20.61-8.21-19.93-16.08s10.71-13.41,22.4-12.39a30.53,30.53,0,0,1,3.36.49c-7-8.46-8.34-19-2.81-24.08,4.29-3.93,11.45-3.5,18.1.44a9.63,9.63,0,0,0-1.8,1.31c-5.55,5.08-4.22,15.62,2.79,24.08a30.53,30.53,0,0,0-3.36-.49C214.7,55.14,204.67,60.69,204,68.55Z"/><path class="cls-4" d="M218.42,105.48c9.6,18.94,38.71,38.3,57.65,28.7S296.61,89.65,287,70.71a38.45,38.45,0,1,0-68.58,34.77Z"/><path class="cls-5" d="M274.23,134.62c-19,8.32-47.12-10.64-56.53-29.22a38.43,38.43,0,0,1,52.69-51.12,39.83,39.83,0,0,0-6.5,2.59A38.44,38.44,0,0,0,247,108.55C252.06,118.58,262.6,128.72,274.23,134.62Z"/><ellipse class="cls-6" cx="274.45" cy="69.14" rx="4.2" ry="6.36" transform="translate(11.4 173.58) rotate(-35.79)"/><ellipse class="cls-6" cx="226.89" cy="101.96" rx="4.2" ry="6.36" transform="translate(-21.74 94.32) rotate(-22.44)"/><ellipse class="cls-6" cx="241.2" cy="90.48" rx="4.2" ry="6.36" transform="translate(-16.27 98.92) rotate(-22.44)"/><ellipse class="cls-6" cx="261" cy="78.19" rx="4.2" ry="6.36" transform="translate(7.51 178.08) rotate(-38.18)"/><ellipse class="cls-6" cx="278.92" cy="90.89" rx="4.2" ry="6.36" transform="translate(-0.48 180.31) rotate(-35.79)"/><ellipse class="cls-6" cx="243.19" cy="116.76" rx="4.2" ry="6.36" transform="translate(-26.15 101.66) rotate(-22.44)"/><ellipse class="cls-6" cx="260.1" cy="103.05" rx="4.2" ry="6.36" transform="translate(-16.37 145.88) rotate(-30.42)"/><ellipse class="cls-6" cx="232.58" cy="72.36" rx="4.2" ry="6.36" transform="translate(-10.55 57.69) rotate(-13.83)"/><ellipse class="cls-6" cx="246.65" cy="62.44" rx="4.2" ry="6.36" transform="translate(25.24 187.78) rotate(-43.72)"/><ellipse class="cls-6" cx="262.84" cy="127.79" rx="4.2" ry="6.36" transform="translate(40.85 317.89) rotate(-66.5)"/><ellipse class="cls-6" cx="281.77" cy="113.83" rx="4.2" ry="6.36" transform="translate(-20.02 78.17) rotate(-15.26)"/><path class="cls-2" d="M87.07,295.66c26.14,15.78,29.26,58.52,29.26,58.52s-39.27,17.14-65.41,1.36-39.24-42-29.25-58.52S60.93,279.88,87.07,295.66Z"/><path class="cls-2" d="M100,251c12.5,18.1,1.9,47.1,1.9,47.1S71,297.69,58.49,279.59s-13.36-39.2-1.91-47.1S87.46,232.84,100,251Z"/><path class="cls-3" d="M75.81,355.54c-26.13-15.78-39.23-42-29.25-58.52,3.37-5.57,8.94-9.34,15.83-11.27-18-4-34.13-.17-41,11.27-10,16.54,3.12,42.74,29.26,58.52,12.33,7.44,27.59,7.55,40.26,5.6A45.34,45.34,0,0,1,75.81,355.54Z"/><path class="cls-3" d="M89.61,286.22a31.65,31.65,0,0,1-6.22-6.63c-12.1-17.52-13.3-37.81-3-46.28-8.8-4.61-17.71-5.26-24.13-.83-11.45,7.92-10.6,29,1.9,47.11a31.67,31.67,0,0,0,5.32,5.87C71.07,283.58,80.12,283.82,89.61,286.22Z"/><path class="cls-3" d="M63.49,285.46c-.36.09-.73.18-1.1.29.67.13,1.34.29,2,.47Z"/><circle class="cls-7" cx="207.76" cy="128.45" r="31.56"/><path class="cls-8" d="M218.46,158.16a31.57,31.57,0,1,1,0-59.41,31.58,31.58,0,0,0,0,59.41Z"/><circle class="cls-9" cx="218.46" cy="121.69" r="10.71"/><circle class="cls-7" cx="316.35" cy="128.45" r="31.56"/><path class="cls-8" d="M327.05,158.16a31.57,31.57,0,1,1,0-59.41,31.58,31.58,0,0,0,0,59.41Z"/><circle class="cls-9" cx="327.05" cy="121.69" r="10.71"/><path class="cls-10" d="M452.5,355.77H277.85l9.35-145.69.48-7.37c1.44-22.64,11.73-42,26.51-53.3a49.33,49.33,0,0,1,30-10.48c11.25,0,25.36,4,38.67,10.95a109.89,109.89,0,0,1,12.3,7.44c16.37,11.45,29.34,27.39,30.49,45.39l1.15,6.5,1.51,8.69Z"/><path class="cls-11" d="M246.28,355.77h-169L96.83,214.39l1.61-11.68c1.16-18,14.13-33.94,30.51-45.39s36.15-18.39,51-18.39a48.93,48.93,0,0,1,27.86,8.9c16,11,27.17,31.15,28.69,54.88l.9,14.1Z"/><path class="cls-12" d="M341.34,355.77H179.41L191.1,194.5l.29-4a77.73,77.73,0,0,1,16.37-42.69c12.75-16.07,31.66-26.17,52.62-26.17a66.3,66.3,0,0,1,47,19.85,72.8,72.8,0,0,1,6.85,7.9,77.71,77.71,0,0,1,15.15,41.11l.42,5.75Z"/><path class="cls-13" d="M282.47,125.35c-25.91,9.14-45.23,34.36-47.46,65.17L223,355.77H180l12-165.25c2.82-38.88,32.86-68.86,69-68.86A64.34,64.34,0,0,1,282.47,125.35Z"/><path class="cls-14" d="M207.76,147.47a77.79,77.79,0,0,0-16.37,42.68l-12,165.26-27.17,0,12-165.24a76.64,76.64,0,0,1,23.94-50.86A50.2,50.2,0,0,1,207.76,147.47Z"/><path class="cls-15" d="M312.26,150.49a77.82,77.82,0,0,1,16.36,42.68l12,165.26,27.17,0-12-165.24a76.67,76.67,0,0,0-23.93-50.86A50.14,50.14,0,0,0,312.26,150.49Z"/><ellipse class="cls-16" cx="297.1" cy="256.97" rx="19.25" ry="39.07"/><ellipse class="cls-17" cx="406.69" cy="256.97" rx="19.25" ry="39.07" transform="translate(-38.37 74.34) rotate(-9.98)"/><path class="cls-18" d="M426.83,209.21a21.91,21.91,0,0,1-11.7-7.15c-7.13-8.56-17.45-7.87-25.44-5.44a27.44,27.44,0,0,0-14.22,10.67c-6.14,8.62-20.06,3.94-29.16-.47a60.46,60.46,0,0,1-11.4-7.49,21.08,21.08,0,0,0-5.15-3.06c-14.69-6.15-32.66,5.79-32.66,5.79a60.89,60.89,0,0,1-9.9,8c-16.58,10.79-34.75,10.46-49.85,6.73a108.11,108.11,0,0,1-33.15-14.75,52.37,52.37,0,0,0-13.1-7.56c-12.61-4.78-21.12-.29-25.59,3.52a92,92,0,0,1-19,12.87c-24.26,11.9-40.07,9-49.64,3.5l1.61-11.68c1.16-18,14.13-33.94,30.51-45.39s36.15-18.39,51-18.39a48.93,48.93,0,0,1,27.86,8.9c12.75-16.07,31.66-26.17,52.62-26.17a66.3,66.3,0,0,1,47,19.85,72.8,72.8,0,0,1,6.85,7.9,49.33,49.33,0,0,1,30-10.48c11.25,0,25.36,4,38.67,10.95a109.89,109.89,0,0,1,12.3,7.44c16.37,11.45,29.34,27.39,30.49,45.39Z"/><path class="cls-19" d="M260.15,121.66a65.28,65.28,0,0,1,37.91,12.21l-.75.53a37.21,37.21,0,0,1-30.74,5.85,46.93,46.93,0,0,0-11.08-1.32c-14.8,0-34.58,6.94-51,18.39-13.32,9.31-24.39,21.59-28.67,35.54A23.12,23.12,0,0,0,165.28,198a91.9,91.9,0,0,1-19,12.87c-24.27,11.9-40.08,9-49.65,3.5l1.61-11.68c1.16-18,14.13-33.94,30.51-45.39s36.15-18.39,50.95-18.39a48.93,48.93,0,0,1,27.86,8.9C220.28,131.76,239.19,121.66,260.15,121.66Z"/><circle class="cls-14" cx="261.83" cy="327.74" r="15.55"/><circle class="cls-14" cx="123.41" cy="256.97" r="15.55"/><circle class="cls-14" cx="316.35" cy="312.19" r="8.76"/><circle class="cls-14" cx="256.6" cy="262.63" r="8.76"/><circle class="cls-14" cx="130.21" cy="312.19" r="8.76"/><circle class="cls-15" cx="395.31" cy="327.74" r="8.76"/><circle class="cls-15" cx="426.83" cy="303.43" r="8.76"/><circle class="cls-15" cx="373.93" cy="238.71" r="8.76"/><path class="cls-20" d="M417.59,319c-11.78,0-22.45,3.86-30.2,10.12a13,13,0,0,1-16.26,0c-7.75-6.26-18.42-10.12-30.19-10.12-12,0-22.79,4-30.57,10.42a13.31,13.31,0,0,1-17,0C285.59,323,274.77,319,262.81,319a48.47,48.47,0,0,0-29.19,9.33,13.22,13.22,0,0,1-16.05,0A48.49,48.49,0,0,0,188.38,319c-12,0-22.79,4-30.57,10.42a13.31,13.31,0,0,1-17,0C133,323,122.21,319,110.25,319c-23.71,0-42.93,15.64-42.93,34.95s19.22,34.95,42.93,34.95c17.36,0,32.3-8.4,39.06-20.47,6.76,12.07,21.71,20.47,39.07,20.47,15.92,0,29.8-7.06,37.21-17.54,7.41,10.48,21.3,17.54,37.22,17.54,17.36,0,32.3-8.4,39.06-20.47,6.76,12.07,21.71,20.47,39.07,20.47,16.75,0,31.25-7.82,38.32-19.22,7.07,11.4,21.57,19.22,38.33,19.22,23.7,0,42.92-15.65,42.92-34.95S441.29,319,417.59,319Z"/><path class="cls-21" d="M458.33,360.42c-5.69,13.89-21.78,23.91-40.74,23.91-16.76,0-31.26-7.82-38.33-19.21-7.07,11.39-21.57,19.21-38.32,19.21-17.37,0-32.31-8.4-39.07-20.47-6.76,12.07-21.7,20.47-39.06,20.47-15.92,0-29.8-7.06-37.22-17.54-7.41,10.48-21.3,17.54-37.21,17.54-17.37,0-32.3-8.4-39.06-20.47-6.77,12.07-21.71,20.47-39.07,20.47-19,0-35.07-10-40.74-23.91,5.67-13.9,21.78-23.92,40.74-23.92,12,0,22.78,4,30.56,10.43a13.31,13.31,0,0,0,17,0c7.78-6.43,18.6-10.43,30.57-10.43a48.45,48.45,0,0,1,29.18,9.34,13.23,13.23,0,0,0,16.06,0,48.45,48.45,0,0,1,29.19-9.34c12,0,22.78,4,30.56,10.43a13.31,13.31,0,0,0,17,0c7.79-6.43,18.6-10.43,30.57-10.43,11.78,0,22.44,3.87,30.19,10.13a13,13,0,0,0,16.26,0c7.75-6.26,18.42-10.13,30.2-10.13C436.55,336.5,452.64,346.52,458.33,360.42Z"/><path class="cls-21" d="M458.33,360.42c-5.69,13.89-21.78,23.91-40.74,23.91-16.76,0-31.26-7.82-38.33-19.21-7.07,11.39-21.57,19.21-38.32,19.21-17.37,0-32.31-8.4-39.07-20.47-6.76,12.07-21.7,20.47-39.06,20.47-15.92,0-29.8-7.06-37.22-17.54-7.41,10.48-21.3,17.54-37.21,17.54-17.37,0-32.3-8.4-39.06-20.47-6.77,12.07-21.71,20.47-39.07,20.47-19,0-35.07-10-40.74-23.91,5.67-13.9,21.78-23.92,40.74-23.92,12,0,22.78,4,30.56,10.43a13.31,13.31,0,0,0,17,0c7.78-6.43,18.6-10.43,30.57-10.43a48.45,48.45,0,0,1,29.18,9.34,13.23,13.23,0,0,0,16.06,0,48.45,48.45,0,0,1,29.19-9.34c12,0,22.78,4,30.56,10.43a13.31,13.31,0,0,0,17,0c7.79-6.43,18.6-10.43,30.57-10.43,11.78,0,22.44,3.87,30.19,10.13a13,13,0,0,0,16.26,0c7.75-6.26,18.42-10.13,30.2-10.13C436.55,336.5,452.64,346.52,458.33,360.42Z"/><path class="cls-22" d="M57.83,355.41H472.26a0,0,0,0,1,0,0v0a47.07,47.07,0,0,1-47.07,47.07H104.9a47.07,47.07,0,0,1-47.07-47.07v0a0,0,0,0,1,0,0Z"/><path class="cls-23" d="M187.71,402.48H106.18a47.08,47.08,0,0,1-47.07-47.07h81.53A47.07,47.07,0,0,0,187.71,402.48Z"/><path class="cls-24" d="M123.41,402.48H406.69a0,0,0,0,1,0,0v17.73a15.11,15.11,0,0,1-15.11,15.11H138.52a15.11,15.11,0,0,1-15.11-15.11V402.48A0,0,0,0,1,123.41,402.48Z"/><path class="cls-25" d="M204.2,435.31H138.53a15.11,15.11,0,0,1-15.12-15.1V402.48h65.68v17.73A15.11,15.11,0,0,0,204.2,435.31Z"/><path class="cls-26" d="M438.71,435.31a256,256,0,0,1-365.42,0Z"/></g></svg>