<svg xmlns="http://www.w3.org/2000/svg" viewBox="0 0 512 512" style="enable-background:new 0 0 512 512" xml:space="preserve"><path style="fill:#f47973" d="M448.891 462.591c9-9.58 14.528-22.5 14.528-36.728V253.027c0-29.531-23.769-53.467-53.089-53.467H101.67c-29.321 0-53.089 23.937-53.089 53.467v172.835c0 14.228 5.53 27.149 14.528 36.728h385.783v.001z"/><path style="fill:#ed5d51" d="M303.147 127.757c1.843-7.002 2.856-14.532 2.856-22.382 0-37.083-32.1-67.147-49.386-67.147-18.52 0-50.62 30.063-50.62 67.147 0 7.849 1.012 15.38 2.856 22.382h94.294z"/><path style="fill:#00b494" d="M504.163 455.12c0 10.3-8.292 18.651-18.52 18.651H26.357c-10.227 0-18.52-8.351-18.52-18.651 0-10.302 8.292-18.651 18.52-18.651h459.287c10.227-.001 18.519 8.348 18.519 18.651z"/><path style="fill:#f1f2f2" d="M48.577 304.305h414.835v94.501H48.577z"/><path style="fill:#ed5d51" d="M171.363 351.556c0 8.368-6.783 15.151-15.151 15.151H92.473c-8.368 0-15.151-6.783-15.151-15.151 0-8.368 6.783-15.151 15.151-15.151h63.739c8.368 0 15.151 6.783 15.151 15.151zM303.02 351.556c0 8.368-6.783 15.151-15.151 15.151H224.13c-8.368 0-15.151-6.783-15.151-15.151 0-8.368 6.783-15.151 15.151-15.151h63.739c8.368 0 15.151 6.783 15.151 15.151zM434.678 351.556c0 8.368-6.783 15.151-15.151 15.151h-63.739c-8.368 0-15.151-6.783-15.151-15.151 0-8.368 6.783-15.151 15.151-15.151h63.739c8.367 0 15.151 6.783 15.151 15.151z"/><path style="fill:#f1f2f2" d="M477.891 203.673c-4.428-30.288-30.505-53.549-62.022-53.549h-75.55c-.658-18.645-15.864-33.559-34.538-33.559-9.779 0-18.602 4.096-24.889 10.667-6.289-6.571-15.111-10.667-24.891-10.667-9.779 0-18.602 4.096-24.891 10.667-6.288-6.571-15.11-10.667-24.889-10.667-18.674 0-33.88 14.914-34.538 33.559H96.131c-31.518 0-57.595 23.26-62.022 53.549a37.055 37.055 0 0 0-.672 7.004v25.506c0 20.187 16.206 36.557 36.199 36.557 13.193 0 24.734-7.13 31.061-17.782 6.327 10.651 17.868 17.782 31.061 17.782s24.734-7.13 31.061-17.782c6.327 10.651 17.868 17.782 31.061 17.782 13.193 0 24.734-7.13 31.061-17.782 6.327 10.651 17.868 17.782 31.061 17.782s24.734-7.13 31.061-17.782c6.327 10.651 17.868 17.782 31.061 17.782 13.193 0 24.734-7.13 31.061-17.782 6.327 10.651 17.868 17.782 31.061 17.782s24.734-7.13 31.061-17.782c6.327 10.651 17.868 17.782 31.061 17.782 19.992 0 36.199-16.369 36.199-36.557v-25.506a37.303 37.303 0 0 0-.676-7.004z"/><g style="opacity:.2"><path style="fill:#414042" d="M50.155 455.12c0-10.302 8.292-18.651 18.52-18.651H91.95a53.929 53.929 0 0 1-1.051-10.606V265.91a36.614 36.614 0 0 1-15.144-29.726v-25.506c0-2.396.235-4.737.672-7.004 4.428-30.288 30.505-53.549 62.022-53.549H96.131c-31.518 0-57.595 23.26-62.022 53.549a37.055 37.055 0 0 0-.672 7.004v25.506a36.609 36.609 0 0 0 15.144 29.726v159.953c0 3.632.365 7.177 1.051 10.606H26.357c-10.227 0-18.52 8.349-18.52 18.651 0 10.3 8.292 18.651 18.52 18.651h42.318c-10.228-.001-18.52-8.352-18.52-18.651z"/></g><path style="fill:#636052" d="M485.643 428.632H471.19c.043-.921.066-1.843.066-2.769v-156.22c9.269-8.145 15.144-20.12 15.144-33.459v-25.506c0-2.768-.262-5.562-.78-8.308-2.459-16.529-10.775-31.701-23.432-42.735a70.47 70.47 0 0 0-46.32-17.346h-68.676c-3.596-16.591-16.808-29.602-33.452-32.797a95.49 95.49 0 0 0 .098-4.115c0-40.667-35.148-74.984-57.223-74.984-23.084 0-58.457 33.593-58.457 74.984 0 1.376.04 2.747.098 4.115-16.644 3.195-29.856 16.206-33.452 32.797H96.131a70.475 70.475 0 0 0-46.32 17.346c-12.657 11.035-20.973 26.206-23.432 42.735a45.008 45.008 0 0 0-.779 8.308v25.506c0 13.34 5.874 25.315 15.144 33.459v156.22c0 .927.023 1.849.066 2.769H26.357C11.823 428.632 0 440.514 0 455.12c0 14.605 11.823 26.488 26.357 26.488h459.287c14.533 0 26.357-11.883 26.357-26.488-.001-14.606-11.824-26.488-26.358-26.488zM56.417 312.139h399.167v78.832H56.417v-78.832zM214.302 98.111a9.159 9.159 0 0 0 5.276 1.668c5.114 0 9.26-4.175 9.26-9.327 0-5.151-4.146-9.325-9.26-9.325-.214 0-.424.019-.634.032 9.128-21.219 28.177-35.096 37.674-35.096 8.929 0 27.431 14.104 36.42 35.095-.204-.015-.408-.031-.614-.031-5.114 0-9.26 4.173-9.26 9.325 0 5.151 4.146 9.327 9.26 9.327a9.16 9.16 0 0 0 5.269-1.662c.299 2.373.474 4.791.474 7.258 0 1.36-.048 2.713-.117 4.062a41.658 41.658 0 0 0-17.159 7.404c-7.186-5.273-15.801-8.113-24.891-8.113s-17.705 2.84-24.891 8.113a41.663 41.663 0 0 0-17.159-7.404 79.424 79.424 0 0 1-.117-4.062c0-2.474.174-4.892.469-7.264zm-8.083 26.29c7.31 0 14.139 2.93 19.227 8.249a7.84 7.84 0 0 0 11.323 0c5.091-5.32 11.92-8.249 19.229-8.249 7.309 0 14.139 2.93 19.229 8.249a7.837 7.837 0 0 0 11.323 0c5.09-5.32 11.918-8.249 19.227-8.249 11.58 0 21.458 7.47 25.164 17.886H181.055c3.706-10.416 13.584-17.886 25.164-17.886zM41.273 210.676c0-1.837.179-3.695.53-5.523.022-.115.042-.231.059-.347 3.905-26.707 27.235-46.846 54.269-46.846H415.87c27.034 0 50.364 20.139 54.268 46.846.017.116.037.232.059.347a29.37 29.37 0 0 1 .53 5.523v25.506c0 15.836-12.724 28.72-28.363 28.72-10.043 0-19.135-5.214-24.323-13.947a7.837 7.837 0 0 0-13.475 0c-5.187 8.732-14.281 13.947-24.322 13.947-10.043 0-19.135-5.214-24.323-13.947a7.838 7.838 0 0 0-13.475 0c-5.187 8.732-14.281 13.947-24.323 13.947-10.043 0-19.135-5.214-24.323-13.947a7.834 7.834 0 0 0-13.474 0c-5.187 8.732-14.281 13.947-24.323 13.947-10.043 0-19.136-5.214-24.323-13.947a7.835 7.835 0 0 0-13.475 0c-5.187 8.732-14.281 13.947-24.323 13.947s-19.135-5.214-24.323-13.947a7.838 7.838 0 0 0-13.476 0c-5.187 8.732-14.281 13.947-24.323 13.947s-19.135-5.214-24.322-13.947a7.838 7.838 0 0 0-13.475 0c-5.187 8.732-14.28 13.947-24.323 13.947-15.639 0-28.363-12.884-28.363-28.72v-25.506h-.004zm28.363 69.901c11.71 0 22.893-4.793 31.061-12.955 8.168 8.162 19.35 12.955 31.061 12.955 11.71 0 22.893-4.793 31.061-12.955 8.168 8.162 19.352 12.955 31.061 12.955s22.893-4.793 31.061-12.955c8.168 8.162 19.352 12.955 31.061 12.955 11.71 0 22.893-4.793 31.061-12.955 8.168 8.162 19.352 12.955 31.061 12.955 11.71 0 22.893-4.793 31.061-12.955 8.168 8.162 19.352 12.955 31.061 12.955 11.71 0 22.893-4.793 31.061-12.955 8.168 8.162 19.352 12.955 31.061 12.955 4.605 0 9.045-.72 13.219-2.047v17.937H56.417V278.53a43.56 43.56 0 0 0 13.219 2.047zM56.417 425.863v-19.217h399.167v19.217c0 .928-.03 1.851-.086 2.769H56.503a44.719 44.719 0 0 1-.086-2.769zm429.226 40.071H26.357c-5.89 0-10.683-4.851-10.683-10.815s4.792-10.815 10.683-10.815h459.287c5.891 0 10.683 4.851 10.683 10.815 0 5.964-4.792 10.815-10.684 10.815z"/><path style="fill:#636052" d="M156.212 328.568H92.473c-12.676 0-22.988 10.312-22.988 22.988s10.312 22.988 22.988 22.988h63.739c12.676 0 22.988-10.312 22.988-22.988s-10.312-22.988-22.988-22.988zm0 30.302H92.473c-4.033 0-7.314-3.282-7.314-7.314s3.281-7.314 7.314-7.314h63.739c4.033 0 7.314 3.282 7.314 7.314.001 4.032-3.28 7.314-7.314 7.314zM287.869 328.568H224.13c-12.676 0-22.988 10.312-22.988 22.988s10.312 22.988 22.988 22.988h63.739c12.676 0 22.988-10.312 22.988-22.988s-10.312-22.988-22.988-22.988zm0 30.302H224.13c-4.033 0-7.314-3.282-7.314-7.314s3.281-7.314 7.314-7.314h63.739c4.033 0 7.314 3.282 7.314 7.314.001 4.032-3.28 7.314-7.314 7.314zM419.527 328.568h-63.739c-12.676 0-22.988 10.312-22.988 22.988s10.312 22.988 22.988 22.988h63.739c12.676 0 22.988-10.312 22.988-22.988-.001-12.676-10.313-22.988-22.988-22.988zm0 30.302h-63.739c-4.033 0-7.314-3.282-7.314-7.314s3.281-7.314 7.314-7.314h63.739c4.033 0 7.314 3.282 7.314 7.314s-3.281 7.314-7.314 7.314z"/><ellipse style="fill:#636052" cx="256" cy="90.456" rx="9.26" ry="9.327"/><ellipse style="fill:#636052" cx="241.8" cy="64.96" rx="9.26" ry="9.327"/><ellipse style="fill:#636052" cx="270.2" cy="64.96" rx="9.26" ry="9.327"/></svg>